<?xml version="1.0" encoding="utf-8"?>
<!-- Generator: Adobe Illustrator 19.2.1, SVG Export Plug-In . SVG Version: 6.00 Build 0)  -->
<svg version="1.1" id="Calque_1" xmlns="http://www.w3.org/2000/svg" xmlns:xlink="http://www.w3.org/1999/xlink" x="0px" y="0px"
	 viewBox="55 41 148 217" style="enable-background:new 0 0 266.7 276;" xml:space="preserve">
<style type="text/css">
	.st0{fill:#FDF0D7;}
	.st1{fill:#EFD3B4;}
	.st2{fill:#33221A;}
	.st3{fill:#642D21;}
	.st4{fill:none;stroke:#EFD3B4;stroke-miterlimit:10;}
	.st5{fill:#FAF9F7;}
	.st6{fill:#0F0F0F;}
	.st7{fill:#5675DB;}
	.st8{fill:#4246A2;}
	.st9{fill:#4A485F;}
</style>
<path class="st0" d="M103.7,155.2c0,0,23,28.9,5.4,47.4c3.1,12.2,24.5,24.4,25.8,25.1c1.8,0.1,16.8-17.3,15.2-25.4
	c-5-3.5-4.6-6.6-4.6-6.6c-3.9-22.1,13.7-40.6,13.7-40.6s-26.7,17.7-29.4,17.2C127.1,172,103.7,155.2,103.7,155.2z"/>
<path class="st1" d="M125.8,187.1c4.9-4.1,8.7,0,8.7,0s7.4-1.6,10.9-4.4c2.4-15.6,13.7-27.6,13.7-27.6s-26.5,17.2-29.4,17.2
	c-1.9,0-26.1-17.2-26.1-17.2c2.4,3.4,9.7,13.3,11.7,26.1C115.4,181.3,122.1,187.1,125.8,187.1z"/>
<path class="st1" d="M114.9,192.1c0,0-1.6,6.1-2,10.4c-0.4,4.3,12,15.3,20.2,15.2c8.1-0.1,14-7.2,13.8-10.9
	c-0.2-4-1.6-10.8-1.4-11.1c0,3.4,4.2,6.3,4.6,6.6c1.3,9.1-13.6,25.3-15,25.4c-1.3,0-23.1-13.5-26-25.1
	C111.2,200,113.3,197.3,114.9,192.1z"/>
<path class="st0" d="M100.7,151.5c2,3.8,25.8,25.8,29.7,25.8c3.8,0,29.8-22.3,31.7-25.1c1.8-2.8,3-55.8,3-58.1
	c0.2-3.9-2.3-8.3-6.7-9.2c-1.8,1.8-10,0-10,0s5.8,4.3,5.7,5.3s-15.2,3.3-17.3,0c-2.2-3.3-12.8-9.2-20.3-9
	c-10.8,0.2-17.5,7.3-17.7,14C98.7,95.2,98.7,147.7,100.7,151.5z"/>
<path class="st0" d="M94.2,118.5c1.8-0.3,4.8,3.8,4.8,3.8l0.6,19c0,0-4,3.3-5.4,3.3s-6.3-6.9-8.3-15.4
	C85.3,126.3,92.3,118.8,94.2,118.5z"/>
<path class="st0" d="M168.4,118.5c-1.8-0.3-4.8,3.8-4.8,3.8l-0.6,19c0,0,4,3.3,5.4,3.3s6.3-6.9,8.3-15.4
	C177.2,126.3,170.2,118.8,168.4,118.5z"/>
<path class="st1" d="M94.9,139.8c0.3-0.7,0-16.5,0.4-21.1c0,0,0.8,0.4,1,0.7c0.1,0.3,2.7,2.8,2.7,2.8l0.6,19c0,0-4.8,3.6-5.4,3.3
	c-1-0.4-2.7-2.6-2.7-2.6S94.5,140.5,94.9,139.8z"/>
<path class="st1" d="M168.1,139.9c-0.3-0.7,1.1-20.9,1.1-20.9c-2-1.4-4.2,0.7-4.2,0.7l-1.7,21.8c0,0,4.5,3.4,5.1,3
	c1-0.4,2.7-2.6,2.7-2.6S168.5,140.6,168.1,139.9z"/>
<polygon class="st1" points="99.4,135.8 100.3,135.8 98.9,118.2 "/>
<polygon class="st1" points="164,135.8 162.2,135.8 164.3,118.2 "/>
<path class="st2" d="M172,121.3c0,0-2.6-2.8-4-2.8l-0.8,16.6h-4l1-13.7c0,0,0.7-27.4,0.7-28.8c-0.9-6.5-6.2-7.9-6.2-7.9l-7.2-6.4
	l3.6-9.1c0,0,8.3,0,11.1,0C175.7,72.4,172,121.3,172,121.3z"/>
<path class="st3" d="M93.5,118.8c0,0-3-39.7,3.3-40.3c-3-1.5-3.3-3.8-3.3-3.8s-0.2-2.6,6.7-3.6c-2.7-3.7-1.5-9.6-1.5-9.6
	s3.4-0.1,6.5,3.1c0.7-11.3,6.8-17.7,7.4-17.8c0.5,0,4.6,1.8,4.8,5.9c3.7-10.7,14.8-10.8,15.4-10.5c0.6,0.3,1,1.4,1,3.6
	c5.8-3.4,12.4-2.4,12.9-2.1c0.4,0.3,0.3,3.1-2.3,5.3c8.6-3,14.3,2.2,14.4,2.8c0.1,0.6-0.5,1.9-3.5,3.6c10.2-1.8,13.9,5.7,13.9,6.3
	c0,0.6-1.4,2.8-6.8,4.1c6.8,2.5,9.1,9.2,8.9,9.9c-0.3,0.7-10,5.7-16.6,1.1c5.8,3.5,6.5,5.6,6.5,5.9c0,0.3-2.2,5.2-12.7,2
	c2.8,1.1,6.1,4.8,5.9,5.5s-10.9,3.9-16.9,0.5c-10.5-10.4-30.6-15-38.3,2c-0.7,2.7-0.1,29.9-0.1,29.7l0.6,12.9l-3.2-0.4
	c0,0,0-15.1-0.2-15.3C94.8,117.9,93.5,118.8,93.5,118.8z"/>
<path class="st2" d="M93.5,118.8c0,0,1.3-0.9,2.7,0.6v-1.1c-1-0.8-2.9-1.7-2.9-1.7L93.5,118.8z"/>
<path class="st2" d="M93.5,74.8c1.6-0.5,4.6,0.9,4.8,1.2c0.2,1.1-1.5,2.6-1.5,2.6S94,77.2,93.5,74.8z"/>
<path class="st2" d="M98.7,61.5c0.9,0,4.3,6,4.1,7.1c-0.2,1-2.6,2.5-2.6,2.5S97.5,68.1,98.7,61.5z"/>
<path class="st2" d="M112.7,46.9c-1.1,1-0.4,10.9,0.4,11.1c0.8,0.2,4.3-5.2,4.3-5.2S117.4,48.4,112.7,46.9z"/>
<path class="st2" d="M132.7,42.3c1.1,0.4,1,3.6,1,3.6s-5.2,1.8-5.5,1.7C127.9,47.4,131.6,42.3,132.7,42.3z"/>
<path class="st2" d="M146.6,43.8c-0.6-0.2-6.2,4.9-6,6c0.1,0.3,3.8-0.7,3.8-0.7S147.7,46.2,146.6,43.8z"/>
<path class="st2" d="M158.7,51.8c-0.2-1-10.3,0.4-11,2.2c0,0.4,6.1,1.7,7.5,1.4C155.2,55.4,158.9,53.3,158.7,51.8z"/>
<path class="st2" d="M169,61.6c-0.2-0.5-14-0.1-14.6,1.8c0,0.6,6.9,2.5,7.8,2.3C162.3,65.8,168.4,64.5,169,61.6z"/>
<path class="st2" d="M171.2,75.7c-0.6-2.1-17.5-4.8-18.4-3.5c-0.9,1.3,0.6,4,2.9,5.2C158,79.1,167.2,80.8,171.2,75.7z"/>
<path class="st2" d="M161,82.6c0.1-1.5-15-2.3-15.9-1.1c0.1,0.5,1.9,2.4,3.3,3.2C151.1,86.4,159.8,86.6,161,82.6z"/>
<path class="st2" d="M154.2,90.1c0.1-0.7-10-2.9-15.3-3.2c-1.6-0.1-4.4,1.2-4.4,1.2s1.6,1.4,2.8,2.4
	C138.2,91.7,148.7,94.3,154.2,90.1z"/>
<path class="st1" d="M98.7,103.8c0,0-0.1-9.9,0.4-11.4c7.4-16.5,27.2-12.6,38.3-1.7c8.1,3.6,15.6,0.7,16.9-0.5c-0.3-1.6-4.5-4.7-5-5
	c0,0,5.2,1.7,9.7-0.3c6,1.9,6,7.8,6,7.8l-0.4,14.2c0,0-0.3-15-2.8-15.5c0,0-0.8,1.2-4.1-0.9c2,4.1-12.5,11.5-20.9,3.8
	c-17.9-12.7-29.8-8.5-35.1,0C100.4,96.2,98.7,103.8,98.7,103.8z"/>
<polygon class="st2" points="102.1,113.8 111.4,108.9 125,111.9 126.7,106.5 110.8,103.2 "/>
<polygon class="st2" points="161,113.8 151.7,108.9 138,111.9 136.4,106.5 152.3,103.2 "/>
<polygon class="st1" points="102.1,113.8 111.2,110.8 124.7,113.3 125,111.9 111.4,108.9 "/>
<polygon class="st1" points="161,113.8 151.9,110.8 138.4,113.3 138,111.9 151.7,108.9 "/>
<polyline class="st1" points="115.4,175.9 115.5,176.8 118.2,177.4 "/>
<polygon class="st1" points="122.2,139.8 124.8,139.1 128.5,141.8 "/>
<polygon class="st1" points="138,139.8 135.3,139.1 131.6,141.8 "/>
<path class="st4" d="M119.7,152.4c0,0,17.3,5.6,21.4-1.4"/>
<path class="st5" d="M117.2,123.5c-4.3,0.3-7.8-0.1-8.6-3.4c-0.5-2.3-0.6-3.5,3.6-4.5c4.2-1,9.5,1.9,10.1,4.2
	C122.8,122,121.9,123.2,117.2,123.5z"/>
<path class="st5" d="M146,123.5c4.3,0.3,7.8-0.1,8.6-3.4c0.5-2.3,0.6-3.5-3.6-4.5c-4.2-1-9.5,1.9-10.1,4.2
	C140.4,122,141.3,123.2,146,123.5z"/>
<path class="st6" d="M121.2,119c0.8,1.3,0.2,3.1-0.9,3.8c-1.2,0.7-2.7,0.2-3.5-1.1c-0.8-1.3-0.5-2.9,0.7-3.6
	C118.6,117.3,120.4,117.7,121.2,119z"/>
<path class="st6" d="M153.6,119.1c0.8,1.3,0.2,3.1-0.9,3.8c-1.2,0.7-2.7,0.2-3.5-1.1c-0.8-1.3-0.5-2.9,0.7-3.6
	C151,117.4,152.8,117.7,153.6,119.1z"/>
<path class="st7" d="M109.1,202.5c2.6,9.6,20.5,22.9,26,25.1c2.8-1,16.4-18.3,15-25.4c1.4,0.1,1.4,7.8,0,15.5
	c-1.4,7.7-8.2,40.5-8.2,40.5c-12.8,1.7-24.3,0.8-24.3,0.8S107.4,202.5,109.1,202.5z"/>
<path class="st8" d="M110,213.1c0,0,20,16.3,25,17.6l0-1.5h0.2l0,1.5c3.7-0.4,14.8-12.8,14.8-12.8l-0.3,1.6c0,0-10.6,11.7-14.5,11.7
	c-4,0-25-17-25-17L110,213.1z"/>
<path class="st8" d="M109.1,202.5c0.4,0.5,14.3,56.6,14.3,56.6l-5.8-0.1C117,257.8,107.4,202.3,109.1,202.5z"/>
<path class="st8" d="M150,202.3c0.5,12.2-15.5,56.6-15.5,56.6l7.3-0.6C147.4,244,153.8,203.5,150,202.3z"/>
<path class="st9" d="M112.8,197.3c0,0-46.5,13.7-54.8,21.1c-1,0.9-1.7,6.3-2.1,12.3c5.6,6.5,6.8,6.1,10.8,9.7
	c4.3,3.7,13.9,8.8,13.9,8.8s17.7,9.3,36.9,9.8c0,0-10.3-56.4-8.5-56.5C110.5,201,112.8,197.3,112.8,197.3z"/>
<path class="st9" d="M145.7,197.3c0,0,46.5,13.7,54.8,21.1c1.2,1,2,8.5,2.3,15.9c-6,4.9-11.4,7.4-13.3,8.7c-2.7,1.8-13,6.3-13,6.3
	s-18.2,7.7-35.7,9.1c0,0,10.4-55.7,8.6-55.8C148,201,145.7,197.3,145.7,197.3z"/>
<polygon class="st9" points="55.9,230.8 55.9,259.3 117.6,259 "/>
<polygon class="st9" points="202.8,234.3 141.8,258.3 202.8,258.3 "/>
</svg>
